<svg xmlns="http://www.w3.org/2000/svg" width="262" height="48" viewBox="0 0 262 48">
  <metadata><?xpacket begin="﻿" id="W5M0MpCehiHzreSzNTczkc9d"?>
<x:xmpmeta xmlns:x="adobe:ns:meta/" x:xmptk="Adobe XMP Core 5.6-c142 79.160924, 2017/07/13-01:06:39        ">
   <rdf:RDF xmlns:rdf="http://www.w3.org/1999/02/22-rdf-syntax-ns#">
      <rdf:Description rdf:about=""/>
   </rdf:RDF>
</x:xmpmeta>
                                                                                                    
                                                                                                    
                                                                                                    
                                                                                                    
                                                                                                    
                                                                                                    
                                                                                                    
                                                                                                    
                                                                                                    
                                                                                                    
                                                                                                    
                                                                                                    
                                                                                                    
                                                                                                    
                                                                                                    
                                                                                                    
                                                                                                    
                                                                                                    
                                                                                                    
                                                                                                    
                           
<?xpacket end="w"?></metadata>
<defs>
    <style>
      .cls-1 {
        fill: #f24841;
        fill-rule: evenodd;
      }
    </style>
  </defs>
  <path id="svi_framework" data-name="svi framework" class="cls-1" d="M3.67,42.74a23.6,23.6,0,0,1-2.43-1.08L0.16,45.92a18.363,18.363,0,0,0,2.88,1.2,13.244,13.244,0,0,0,4.32.66q4.68,0,7.11-2.52A9.19,9.19,0,0,0,16.9,38.6a9.492,9.492,0,0,0-.54-3.39,8.718,8.718,0,0,0-1.41-2.46,10.153,10.153,0,0,0-1.98-1.83q-1.111-.779-2.25-1.44-0.96-.54-1.83-1.14a11.034,11.034,0,0,1-1.56-1.29,5.658,5.658,0,0,1-1.11-1.56,4.711,4.711,0,0,1-.42-2.07,4.279,4.279,0,0,1,1.14-3.21A4.2,4.2,0,0,1,10,19.1a8.728,8.728,0,0,1,2.34.3,9.975,9.975,0,0,1,2.16.9l1.14-4.14a13.72,13.72,0,0,0-2.58-.99,11.855,11.855,0,0,0-3.3-.45,8.943,8.943,0,0,0-6.57,2.4,8.462,8.462,0,0,0-2.43,6.3,9.972,9.972,0,0,0,.45,3.15,8.962,8.962,0,0,0,1.2,2.4,10.076,10.076,0,0,0,1.71,1.86A14.248,14.248,0,0,0,6.1,32.24Q7.12,32.9,8.14,33.47a9.442,9.442,0,0,1,1.8,1.29,5.963,5.963,0,0,1,1.26,1.65,5.5,5.5,0,0,1-.69,5.64,4.421,4.421,0,0,1-3.45,1.29A9.2,9.2,0,0,1,3.67,42.74ZM26.559,35.3q-0.78-3.24-1.53-6.69t-1.44-6.87q-0.69-3.42-1.17-6.24h-5.46q0.779,3.96,1.829,8.34t2.158,8.61q1.11,4.23,2.249,8.01t2.1,6.54h5.322q0.962-2.759,2.106-6.54t2.256-8.01q1.114-4.23,2.167-8.61t1.835-8.34h-5.16q-0.481,2.821-1.17,6.24t-1.47,6.87q-0.78,3.451-1.59,6.69t-1.53,5.64Q27.339,38.541,26.559,35.3ZM46.119,15.5h-5.16V47h5.16V15.5Zm-0.21-4.51A3.252,3.252,0,0,0,46.9,8.5a3.255,3.255,0,0,0-.99-2.49,3.485,3.485,0,0,0-4.74,0,3.255,3.255,0,0,0-.99,2.49,3.252,3.252,0,0,0,.99,2.49A3.485,3.485,0,0,0,45.909,10.99ZM69.457,3.23q-2.281,2.79-2.28,7.89V47h5.16V19.94h8.1V15.5h-8.1V11.12a16.389,16.389,0,0,1,.18-2.49,5.793,5.793,0,0,1,.66-2.01,3.385,3.385,0,0,1,1.38-1.32,4.818,4.818,0,0,1,2.28-.48,8.451,8.451,0,0,1,1.92.21,7.961,7.961,0,0,1,1.74.63l1.08-4.08A12.02,12.02,0,0,0,79.417.8a11.685,11.685,0,0,0-3.06-.36Q71.736,0.44,69.457,3.23Zm27,12.51a11.613,11.613,0,0,0-2.7-.66,23.2,23.2,0,0,0-2.88-.18,20.158,20.158,0,0,0-4.95.57,21.157,21.157,0,0,0-3.99,1.41V47H87.1V20.12a10.9,10.9,0,0,1,4.14-.78,10.681,10.681,0,0,1,4.32.84Zm2.219,4.8a14.268,14.268,0,0,1,2.61-.87,12.137,12.137,0,0,1,2.61-.27,5.171,5.171,0,0,1,3.87,1.38q1.35,1.381,1.35,4.86v2.88a22.524,22.524,0,0,0-4.38-.48,11.723,11.723,0,0,0-3.9.63,8.763,8.763,0,0,0-3.12,1.86,8.537,8.537,0,0,0-2.07,3.06,11.253,11.253,0,0,0-.75,4.29,10.663,10.663,0,0,0,.84,4.47,8.467,8.467,0,0,0,5.55,4.77,14.683,14.683,0,0,0,4.05.54,27.889,27.889,0,0,0,4.41-.36,40.115,40.115,0,0,0,4.41-.96V25.46q0-5.52-2.64-8.13a9.316,9.316,0,0,0-6.84-2.61,17.281,17.281,0,0,0-3.78.39,19.312,19.312,0,0,0-3.3,1.05Zm1.8,14.61a4.145,4.145,0,0,1,1.17-1.68,4.488,4.488,0,0,1,1.77-.9,8.4,8.4,0,0,1,2.16-.27,13.72,13.72,0,0,1,3.54.48V42.8a16.642,16.642,0,0,1-3.54.42,5.818,5.818,0,0,1-4.08-1.32,5.275,5.275,0,0,1-1.44-4.08A7.238,7.238,0,0,1,100.477,35.15ZM115.956,47h5.16V20a12.381,12.381,0,0,1,3.54-.6q3,0,4.08,2.16t1.08,6.84V47h5.16V27.98a28.9,28.9,0,0,0-.24-3.9,16.3,16.3,0,0,0-.72-3.12,9.141,9.141,0,0,1,2.19-1.14,6.82,6.82,0,0,1,2.31-.42q3,0,4.08,2.16t1.08,6.84V47h5.16V27.98a23.673,23.673,0,0,0-.72-6.33,10.8,10.8,0,0,0-1.98-4.05,6.96,6.96,0,0,0-3.03-2.13,11.655,11.655,0,0,0-3.93-.63,11.432,11.432,0,0,0-3.96.66,16.534,16.534,0,0,0-3.36,1.68,7.693,7.693,0,0,0-3.03-1.8,12.615,12.615,0,0,0-3.81-.54,25.174,25.174,0,0,0-4.5.45,38.09,38.09,0,0,0-4.56,1.11V47Zm54.36-14.22c0.039-.48.06-0.95,0.06-1.41V30.02q0-7.259-2.22-11.28t-7.56-4.02a8.943,8.943,0,0,0-7.62,4.02q-2.88,4.02-2.88,12.72a33.711,33.711,0,0,0,.6,6.6,14.551,14.551,0,0,0,2.01,5.16,9.828,9.828,0,0,0,3.66,3.36,11.684,11.684,0,0,0,5.55,1.2,13.406,13.406,0,0,0,4.35-.63,11.465,11.465,0,0,0,2.61-1.17l-0.96-4.14a15.324,15.324,0,0,1-2.13.87,9.73,9.73,0,0,1-3.21.51,6.823,6.823,0,0,1-3.45-.78,5.818,5.818,0,0,1-2.16-2.19,10.534,10.534,0,0,1-1.17-3.3,25.891,25.891,0,0,1-.42-4.17h14.94Zm-6.24-11.13a21.474,21.474,0,0,1,.9,6.93h-9.54a19.6,19.6,0,0,1,1.41-6.9,3.905,3.905,0,0,1,3.75-2.58A3.433,3.433,0,0,1,164.076,21.65Zm18.468,20.58q0.633-2.91,1.295-6.21t1.264-6.63q0.6-3.33.962-6.09,0.36,2.76.841,6.09t1.052,6.63q0.571,3.3,1.141,6.21T190.151,47H195.2q1.846-6.179,3.487-14.22T201.7,15.5h-4.92q-0.238,2.58-.715,6.03t-1.042,7.05q-0.566,3.6-1.161,7.02t-1.132,5.82q-0.478-2.4-1.078-5.88t-1.167-7.17q-0.569-3.69-1.077-7.11t-0.748-5.76H183.8q-0.361,2.34-.962,5.79T181.54,28.4q-0.691,3.66-1.383,7.14t-1.232,5.88q-0.543-2.4-1.148-5.79T176.6,28.61q-0.575-3.63-1.058-7.08t-0.725-6.03h-5.1q1.387,9.24,3.046,17.28T176.289,47h5.2Q181.912,45.141,182.544,42.23Zm40.991-17.67a16.622,16.622,0,0,0-2.01-5.25,9.737,9.737,0,0,0-3.42-3.39,9.584,9.584,0,0,0-4.89-1.2,9.324,9.324,0,0,0-8.37,4.59,16.622,16.622,0,0,0-2.01,5.25,31.906,31.906,0,0,0-.66,6.72,31.782,31.782,0,0,0,.66,6.75,16.25,16.25,0,0,0,2.01,5.19,9.38,9.38,0,0,0,8.37,4.56,9.584,9.584,0,0,0,4.89-1.2,9.806,9.806,0,0,0,3.42-3.36,16.25,16.25,0,0,0,2.01-5.19,31.782,31.782,0,0,0,.66-6.75A31.906,31.906,0,0,0,223.535,24.56ZM218.5,36.11a14.822,14.822,0,0,1-.96,3.75,6.078,6.078,0,0,1-1.74,2.43,4.305,4.305,0,0,1-5.19,0,6.487,6.487,0,0,1-1.74-2.43,13.981,13.981,0,0,1-.99-3.75,35.734,35.734,0,0,1-.3-4.83,35.754,35.754,0,0,1,.3-4.83,14.442,14.442,0,0,1,.99-3.78,6.468,6.468,0,0,1,1.74-2.46,4.305,4.305,0,0,1,5.19,0,6.066,6.066,0,0,1,1.74,2.46,15.322,15.322,0,0,1,.96,3.78,35.754,35.754,0,0,1,.3,4.83A35.734,35.734,0,0,1,218.5,36.11Zm21.78-20.37a11.613,11.613,0,0,0-2.7-.66,23.2,23.2,0,0,0-2.88-.18,20.158,20.158,0,0,0-4.95.57,21.165,21.165,0,0,0-3.99,1.41V47h5.16V20.12a10.906,10.906,0,0,1,4.14-.78,10.683,10.683,0,0,1,4.32.84Zm15.477-.24q-0.717,1.378-1.788,3.113T251.7,22.176Q250.509,24,249.287,25.8t-2.293,3.233V0.44l-5.16.9V47h5.16V31.55a34.447,34.447,0,0,1,2.461,3.127q1.321,1.863,2.641,3.938t2.521,4.238q1.2,2.164,2.1,4.148h5.636q-0.84-2.042-2.042-4.294t-2.58-4.5q-1.382-2.253-2.882-4.355t-2.942-3.784q2.28-3.116,4.593-6.681t4.833-7.882h-5.582Z"/>
</svg>
